<svg width="44" height="45" viewBox="0 0 44 45" fill="none" xmlns="http://www.w3.org/2000/svg">
<rect y="0.5" width="44" height="44" rx="8" fill="#F0F2F3"/>
<path d="M13.5208 14.9791L15.4275 15.3091L16.3102 25.826C16.3442 26.2399 16.5329 26.6257 16.8387 26.9066C17.1445 27.1875 17.545 27.3427 17.9602 27.3413H27.9611C28.3587 27.3417 28.743 27.1986 29.0435 26.9382C29.344 26.6778 29.5403 26.3177 29.5964 25.9241L30.4672 19.9126C30.4905 19.7528 30.4819 19.5899 30.4422 19.4333C30.4024 19.2767 30.3321 19.1295 30.2354 19.0001C30.1387 18.8707 30.0174 18.7616 29.8785 18.6791C29.7396 18.5966 29.5858 18.5423 29.4259 18.5193C29.3672 18.5129 15.7337 18.5083 15.7337 18.5083" stroke="#272343" stroke-width="1.5" stroke-linecap="round" stroke-linejoin="round"/>
<path d="M23.9479 21.8954H26.4898" stroke="#272343" stroke-width="1.5" stroke-linecap="round" stroke-linejoin="round"/>
<path fill-rule="evenodd" clip-rule="evenodd" d="M17.5578 30.5194C17.6251 30.5165 17.6922 30.5272 17.7551 30.551C17.8181 30.5747 17.8756 30.611 17.9242 30.6575C17.9728 30.704 18.0114 30.7599 18.0378 30.8218C18.0643 30.8837 18.0779 30.9503 18.0779 31.0176C18.0779 31.0849 18.0643 31.1515 18.0378 31.2133C18.0114 31.2752 17.9728 31.3311 17.9242 31.3777C17.8756 31.4242 17.8181 31.4605 17.7551 31.4842C17.6922 31.5079 17.6251 31.5187 17.5578 31.5158C17.4294 31.5103 17.3081 31.4554 17.2191 31.3626C17.1302 31.2697 17.0805 31.1461 17.0805 31.0176C17.0805 30.889 17.1302 30.7654 17.2191 30.6726C17.3081 30.5798 17.4294 30.5249 17.5578 30.5194Z" fill="#272343" stroke="#272343" stroke-width="1.5" stroke-linecap="round" stroke-linejoin="round"/>
<path fill-rule="evenodd" clip-rule="evenodd" d="M27.8987 30.5194C28.0312 30.5194 28.1583 30.572 28.252 30.6657C28.3457 30.7594 28.3983 30.8865 28.3983 31.019C28.3983 31.1515 28.3457 31.2786 28.252 31.3723C28.1583 31.4659 28.0312 31.5186 27.8987 31.5186C27.7662 31.5186 27.6392 31.4659 27.5455 31.3723C27.4518 31.2786 27.3992 31.1515 27.3992 31.019C27.3992 30.8865 27.4518 30.7594 27.5455 30.6657C27.6392 30.572 27.7662 30.5194 27.8987 30.5194Z" fill="#272343" stroke="#272343" stroke-width="1.5" stroke-linecap="round" stroke-linejoin="round"/>
</svg>
